<?xml version="1.0" encoding="UTF-8" standalone="no"?>
<!-- Created with Inkscape (http://www.inkscape.org/) -->

<svg
        xmlns:svg="http://www.w3.org/2000/svg"
        xmlns:rdf="http://www.w3.org/1999/02/22-rdf-syntax-ns#"
        xmlns:cc="http://creativecommons.org/ns#"
        xmlns:dc="http://purl.org/dc/elements/1.1/"
        width="210mm"
        height="104mm"
        viewBox="0 0 210 104"
        version="1.1"
        id="svg1"
        xml:space="preserve"
        xmlns="http://www.w3.org/2000/svg"><title
     id="title1">GNUF</title>
    <defs
            id="defs1"/>
    <g
            id="layer1"><path
       style="fill:#FFFFFF;stroke-width:0.626537"
       d="m 54.729064,100.99026 c -0.477807,-1.572754 -0.868191,-2.938709 -0.86752,-3.035459 7.43e-4,-0.10714 0.957635,-0.25262 2.446345,-0.37199 1.34482,-0.10777 4.683036,-0.37941 7.418265,-0.60354 29.271468,-2.39836 51.666946,-3.246973 85.579366,-3.242754 l 10.15349,9.97e-4 -0.004,1.533377 c -0.005,2.57795 -0.69413,3.563138 -2.35435,3.371238 -3.7622,-0.434908 -32.01178,-0.623388 -42.40022,-0.282908 -22.323443,0.731655 -38.098351,2.111309 -54.348053,4.753219 -2.493599,0.40541 -4.583567,0.73711 -4.644373,0.73711 -0.06082,0 -0.501488,-1.28679 -0.979295,-2.85956 z M 63.338059,89.58003 C 60.946678,89.024778 59.07057,88.118521 56.979895,86.508704 56.066918,85.80571 55.732484,85.372663 54.544461,83.355087 53.223862,81.112361 53.116207,80.45589 53.12088,74.674096 l 0.0041,-5.056024 0.687665,-2.569448 c 1.440286,-5.38162 1.742111,-5.997035 4.17658,-8.515873 1.021491,-1.056891 1.516736,-1.424775 2.606415,-1.936117 0.739916,-0.347208 1.63508,-0.68369 1.989258,-0.747739 0.354175,-0.06402 1.196709,-0.255801 1.872307,-0.426118 0.901097,-0.22718 1.828567,-0.309522 3.4812,-0.309065 1.955513,5.46e-4 2.324134,0.04413 2.793108,0.33003 1.555133,0.948178 1.595353,3.235092 0.07346,4.175696 -0.501929,0.310206 -0.943564,0.386195 -2.841907,0.488984 -2.288088,0.123894 -4.279797,0.520319 -5.321987,1.059248 -0.573608,0.296617 -1.765292,1.517784 -2.432292,2.492453 -0.202262,0.295566 -0.586212,1.309433 -0.853219,2.253046 -0.267004,0.943605 -0.656116,2.312424 -0.864689,3.041821 -0.334354,1.169254 -0.387403,1.788655 -0.448346,5.234932 -0.07958,4.49986 0.03951,5.259656 1.110506,7.08542 1.046882,1.784649 2.882564,2.924399 5.514035,3.423573 1.981908,0.375967 2.595145,0.334752 3.49318,-0.234775 0.903652,-0.573076 1.045102,-1.022366 0.907409,-2.882408 -0.09652,-1.303586 -0.919944,-3.473715 -1.712238,-4.512463 -0.420015,-0.55067 -0.476568,-0.571695 -1.537914,-0.571695 -1.450455,0 -2.131777,-0.353947 -2.645435,-1.374326 -0.85495,-1.698351 0.04762,-3.110611 2.38889,-3.737826 1.208659,-0.323786 1.753055,-0.358291 5.653147,-0.358291 4.202634,0 4.330039,0.01001 4.863717,0.372984 0.891872,0.607004 1.222469,1.178589 1.222469,2.113584 0,0.896206 -0.300276,1.448049 -1.121946,2.061892 -0.36348,0.271547 -0.761686,0.353689 -1.93757,0.399726 -1.171461,0.04582 -1.480067,0.109191 -1.480067,0.303755 0,0.135207 0.226205,0.761207 0.502674,1.391117 0.693361,1.579755 0.868422,2.711234 0.794241,5.133455 -0.05776,1.887328 -0.108039,2.16992 -0.545202,3.066762 -0.616736,1.265223 -1.861312,2.469679 -3.417696,3.307532 l -1.229636,0.661948 -2.072142,0.03062 c -1.550718,0.02297 -2.420083,-0.0502 -3.454856,-0.290464 z m 19.095635,-1.493797 c -0.765911,-0.221883 -1.505516,-1.14815 -1.641648,-2.055975 -0.106001,-0.706823 0.159542,-3.096766 0.874953,-7.874971 0.378274,-2.526422 0.446825,-7.628633 0.141647,-10.541391 -0.175845,-1.678329 -0.262091,-4.094337 -0.262091,-7.341975 0,-4.494879 0.02337,-4.886373 0.327793,-5.483019 0.39192,-0.768237 1.115861,-1.319622 1.899545,-1.446795 1.585094,-0.257232 2.750411,0.883661 3.07881,3.014273 0.348997,2.26422 0.863313,3.654889 2.360359,6.382188 0.825774,1.504374 1.902328,3.356293 2.392341,4.115372 0.490023,0.759082 1.188449,1.952631 1.552072,2.652345 0.363624,0.699704 0.920208,1.719773 1.236856,2.266814 l 0.575725,0.994622 1.1e-5,-3.315416 c 1.1e-5,-2.401125 -0.06745,-3.566861 -0.244709,-4.227169 -0.134597,-0.50145 -0.245607,-1.182365 -0.246692,-1.513141 -9.98e-4,-0.330764 -0.113863,-0.869196 -0.250617,-1.196511 -0.18434,-0.441171 -0.248494,-1.250463 -0.248039,-3.128457 5.43e-4,-2.235421 0.03937,-2.596864 0.33003,-3.073602 0.949206,-1.556841 3.235153,-1.595254 4.17769,-0.07019 0.3127,0.505964 0.385573,0.928714 0.47559,2.75902 0.05845,1.18883 0.188264,2.534485 0.288441,2.990358 0.732159,3.331896 0.778039,3.791586 0.777569,7.791246 -3.2e-4,2.668578 -0.07106,4.278693 -0.214586,4.89025 -0.117766,0.501462 -0.436194,2.217189 -0.707621,3.81274 -0.61074,3.590254 -0.685499,3.820507 -1.470764,4.529942 -0.842542,0.761188 -1.717792,0.914755 -2.710624,0.475574 C 94.046182,83.103303 93.458584,82.375376 92.885397,80.964736 92.651055,80.388022 92.13581,79.27201 91.740401,78.484707 91.344992,77.697395 90.969526,76.776306 90.906023,76.437827 90.77301,75.72879 88.874473,71.92903 87.817442,70.256298 l -0.717558,-1.135525 -0.101336,3.978516 c -0.05716,2.245243 -0.216405,4.736812 -0.365461,5.719107 -0.343648,2.264706 -0.754666,5.245936 -0.929706,6.74349 -0.166183,1.421774 -0.560113,2.059606 -1.505706,2.437958 -0.740054,0.296102 -0.996729,0.308677 -1.763981,0.08639 z m 30.858026,-1.787779 c -2.24712,-0.811182 -2.67622,-1.324602 -3.48908,-4.174692 -0.24546,-0.860637 -0.64962,-2.198867 -0.89813,-2.973844 -0.4217,-1.315098 -0.53672,-1.937202 -1.01914,-5.511887 -0.1015,-0.752192 -0.2903,-1.88698 -0.41955,-2.521749 -0.12924,-0.63477 -0.34392,-1.902916 -0.47709,-2.81811 -0.13314,-0.915183 -0.35107,-2.148865 -0.48429,-2.741494 -0.96772,-4.305206 -1.56324,-8.351937 -1.35258,-9.191222 0.17095,-0.681163 1.06185,-1.562309 1.77328,-1.753881 1.2974,-0.349344 2.82767,0.588614 3.04365,1.865587 0.92803,5.486917 1.2227,7.124589 1.63379,9.079516 0.14377,0.683808 0.37604,1.989252 0.51614,2.900997 0.14012,0.911743 0.39816,2.478277 0.57344,3.4812 0.17528,1.002912 0.36648,2.345656 0.42492,2.983874 0.0914,0.999284 0.35929,2.04026 1.49276,5.801993 0.33078,1.097779 0.72927,0.998172 2.248,-0.561921 3.58126,-3.678817 5.38184,-6.537166 5.80713,-9.218577 0.11569,-0.729397 0.3106,-1.615287 0.43313,-1.968656 0.26919,-0.776328 0.29857,-4.051086 0.0445,-4.965922 -0.0971,-0.349394 -0.23575,-1.13266 -0.30828,-1.740589 -0.0726,-0.607929 -0.2636,-1.675597 -0.4246,-2.372577 -0.35286,-1.527605 -0.25082,-2.260501 0.42131,-3.026013 1.11899,-1.27446 3.25544,-0.980626 4.05063,0.55708 0.62948,1.217299 1.24634,5.146975 1.35748,8.647651 0.0764,2.409604 0.0453,2.920659 -0.24731,4.061393 -0.18415,0.717717 -0.38683,1.677932 -0.45042,2.133794 -0.11166,0.800724 -1.09736,3.609309 -1.39273,3.968337 -0.0795,0.09682 -0.52266,0.831113 -0.98455,1.631867 -1.44398,2.503338 -5.73636,7.116991 -7.39662,7.950242 -0.89328,0.448326 -2.2631,0.792412 -3.11637,0.78279 -0.29183,-0.003 -0.90357,-0.140625 -1.35946,-0.305187 z m 26.21162,-0.186682 c -0.26264,-0.08152 -0.66389,-0.31984 -0.89166,-0.529683 -0.81164,-0.747748 -0.8687,-1.127184 -0.8687,-5.775879 0,-3.915491 -0.1503,-6.594646 -0.65524,-11.680077 -0.0906,-0.911743 -0.18394,-3.261554 -0.20757,-5.22179 -0.0796,-6.603144 -0.0782,-6.634916 0.3314,-7.459707 0.73953,-1.489163 0.17918,-1.402877 9.44847,-1.455026 7.31212,-0.04115 8.23168,-0.01719 8.74769,0.227657 0.77945,0.369873 1.27212,1.111429 1.35262,2.035966 0.0907,1.041205 -0.34251,1.815923 -1.2858,2.29961 -0.71742,0.367875 -0.81546,0.372993 -7.15246,0.372993 h -6.42508 l 0.10096,2.445126 c 0.0555,1.344812 0.11204,2.460285 0.12553,2.478825 0.0135,0.01859 1.0828,0.108843 2.37627,0.200677 2.60053,0.184624 3.17578,0.375281 3.6936,1.224159 0.51316,0.841263 0.56376,1.477612 0.18546,2.332802 -0.59717,1.35 -1.94978,1.78444 -4.6366,1.489203 -1.05459,-0.11588 -1.41416,-0.104536 -1.47209,0.04653 -0.0421,0.109888 0.0408,1.440773 0.18463,2.957512 0.16799,1.772978 0.2613,4.462303 0.2613,7.531341 0,4.677534 -0.008,4.784657 -0.37299,5.321658 -0.70967,1.042716 -1.79077,1.483627 -2.83978,1.158179 z M 30.737683,73.126431 c -0.911741,-0.476838 -2.96316,-1.379327 -4.558707,-2.005517 -1.595548,-0.6262 -4.31834,-1.695688 -6.05065,-2.376643 C 11.976212,65.539728 8.2481691,62.717851 6.6362077,58.531659 6.3806025,57.867862 5.8673068,56.876849 5.4955494,56.329411 1.6115322,50.609946 -0.50625448,42.229729 0.11224636,35.027324 0.95595531,25.202358 5.9510482,16.184427 13.829021,10.263629 17.773137,7.2993763 20.620683,5.8405693 26.510517,3.7668533 c 1.413199,-0.4975641 3.406577,-1.1996621 4.429728,-1.5602165 2.241492,-0.7898929 5.765286,-1.53690607 8.860169,-1.87827734 2.686018,-0.2962738 9.354708,-0.3358797 12.809689,-0.076082 8.252174,0.62052977 18.752647,2.87717504 26.241768,5.63958984 2.115523,0.780323 6.341649,2.6882976 6.341649,2.8630716 0,0.2384317 -2.507922,1.8752021 -3.83484,2.5027701 -4.113882,1.945672 -9.086881,2.585939 -17.363682,2.23554 -11.579292,-0.490218 -15.097103,-0.48642 -18.429175,0.01988 -5.318323,0.808119 -9.076637,2.58905 -12.106855,5.73703 -0.600298,0.623636 -1.301423,1.452711 -1.558052,1.842395 -0.256631,0.389685 -0.818593,0.966897 -1.248803,1.282701 -1.088516,0.799043 -2.79195,2.660148 -3.450794,3.770193 -1.215902,2.04859 -2.018475,4.828646 -2.015992,6.983237 0.0027,2.363152 0.797828,5.489997 1.918916,7.546343 1.506546,2.763373 3.538559,4.793563 6.068239,6.062793 1.956916,0.981858 3.520235,1.313239 5.665611,1.200927 2.013241,-0.105383 3.215413,-0.409359 5.023685,-1.270265 2.713489,-1.291865 3.715436,-2.112132 11.741584,-9.612457 8.450058,-7.896472 12.568651,-11.100907 17.429089,-13.560566 4.819341,-2.438863 8.745887,-3.424049 13.570127,-3.404795 4.220792,0.01691 7.701173,0.763685 10.53453,2.260542 3.438052,1.816321 6.646572,2.592282 10.710202,2.590174 3.83206,-0.0019 6.24892,-0.313568 11.74372,-1.513997 9.61307,-2.100134 11.43602,-2.378152 15.49961,-2.363908 4.11675,0.01441 6.64254,0.538621 9.88915,2.052339 3.46112,1.613725 5.96947,3.754865 12.22223,10.433024 6.99848,7.474598 11.71777,11.220356 16.09887,12.777854 1.92693,0.685032 4.38121,0.855121 6.05066,0.419331 1.62785,-0.424927 3.20449,-1.334901 4.61843,-2.665567 1.4005,-1.318019 3.10233,-3.561811 3.348,-4.414237 1.30427,-4.52521 0.68767,-9.452628 -1.6694,-13.340434 -1.04847,-1.729386 -1.85865,-2.709345 -3.7303,-4.512076 -3.71024,-3.573601 -9.14486,-6.372605 -15.49689,-7.981387 -3.79039,-0.959997 -7.08455,-1.346243 -11.43821,-1.341143 -4.0045,0.005 -7.24349,0.396066 -10.66156,1.288287 l -1.62704,0.424696 -1.27397,-0.455602 c -1.93427,-0.691771 -3.43085,-1.528123 -4.17071,-2.330775 -0.57607,-0.62497 -0.66733,-0.827437 -0.66733,-1.4807357 0,-0.6702507 0.0869,-0.8496067 0.75949,-1.568729 1.27798,-1.366268 4.29442,-2.764559 8.74361,-4.05316 7.15499,-2.0722748 16.76654,-3.44404367 22.23802,-3.1738271 10.82443,0.5345804 20.23283,3.8012061 28.16271,9.7781828 6.61412,4.985254 11.07277,11.345015 12.99435,18.534984 l 0.45558,1.704664 v 5.801984 c 0,5.457004 -0.0228,5.90362 -0.38281,7.51119 -2.43793,10.885287 -10.22027,20.102374 -20.78283,24.614302 -2.17551,0.929301 -4.99591,1.814701 -7.20728,2.26257 -1.30715,0.264727 -2.31387,0.341003 -4.50088,0.341003 h -2.81713 l -1.14921,-1.782042 c -0.63206,-0.980118 -2.23557,-3.579756 -3.56333,-5.776983 -3.77682,-6.249874 -4.97545,-8.018985 -7.23323,-10.675802 -2.67563,-3.148477 -4.13968,-4.403442 -7.39933,-6.342493 -2.29229,-1.36359 -4.13335,-2.052319 -8.34077,-3.120165 l -3.86493,-0.980934 h -3.14223 -3.14226 l -0.75309,-1.164183 c -1.03214,-1.595512 -1.70753,-3.09082 -1.78512,-3.952263 -0.0697,-0.774271 -0.34071,-1.139113 -3.63604,-4.895617 -1.80076,-2.052767 -3.37996,-4.368927 -3.53223,-5.180617 -0.38957,-2.076633 1.82569,-2.662144 7.15906,-1.892209 5.67256,0.818906 8.04064,1.62467 11.86418,4.03692 3.09741,1.954142 5.408,3.961128 12.07831,10.491168 4.67716,4.578821 6.97329,6.588512 9.3162,8.154033 6.0588,4.048469 11.63822,4.524621 17.82476,1.521182 1.4542,-0.705975 1.80245,-0.956647 2.41721,-1.739932 3.30523,-4.211196 5.03657,-10.246891 4.57792,-15.959178 -0.74945,-9.333744 -5.94016,-16.51239 -14.29587,-19.770903 -0.47482,-0.185159 -1.60928,-0.702607 -2.52103,-1.149879 -4.65624,-2.2841704 -11.23748,-2.9948721 -23.10532,-2.4951134 -2.49643,0.105123 -4.57138,0.158732 -4.61098,0.119124 -0.13708,-0.13708 3.35589,-1.4092273 5.25432,-1.9136333 3.92288,-1.042299 6.75118,-1.398384 11.10666,-1.398332 5.00411,5.9e-5 9.23308,0.576027 13.78097,1.876921 5.53541,1.5833543 11.0334,4.3643857 14.16808,7.1665607 6.99458,6.252657 9.41802,14.521039 7.76853,26.50482 -0.46815,3.401265 -1.73358,9.441613 -2.15018,10.26376 -1.47283,2.906465 -5.93193,8.331856 -8.26408,10.0549 -1.08325,0.800326 -1.36122,0.871175 -1.51515,0.386166 -0.0856,-0.269709 -0.25001,-0.331242 -0.88147,-0.32992 -0.91052,0.0019 -1.98975,0.466648 -3.6141,1.556345 -0.62541,0.419558 -1.30945,0.762828 -1.5201,0.762828 -0.55923,0 -1.27369,-0.416268 -1.74239,-1.015159 l -0.41042,-0.524425 -0.11984,0.709386 c -0.076,0.449947 -0.31319,0.920322 -0.64847,1.286179 -0.44139,0.481649 -0.65031,0.580502 -1.26635,0.599171 -0.40577,0.01233 -1.05481,-0.03449 -1.44229,-0.103918 -0.55384,-0.0993 -0.70453,-0.07664 -0.70453,0.106087 0,0.298757 1.26253,2.014574 2.18575,2.970474 l 0.71524,0.740572 2.07215,0.114131 c 7.43242,0.409368 14.73554,-3.230211 20.27507,-10.104296 3.91648,-4.86002 6.71825,-11.067903 7.55646,-16.742881 0.28138,-1.904993 0.38709,-6.01151 0.20314,-7.890875 -0.71036,-7.257229 -3.95333,-13.716548 -9.79349,-19.506493 -3.12612,-3.099251 -6.21982,-5.3466804 -10.28417,-7.4709857 -7.31481,-3.8232175 -16.02134,-5.5793263 -23.95393,-4.8315204 -0.91175,0.085951 -2.73436,0.2325539 -4.05024,0.325785 -5.60858,0.397369 -10.7142,1.8014834 -16.04119,4.4115374 -1.99617,0.978056 -2.72807,1.4328566 -3.52264,2.1889383 -1.1255,1.0709894 -1.24048,1.4872064 -0.57993,2.0993794 0.70307,0.651599 1.85018,0.835418 5.21319,0.835418 2.25405,0 3.52807,-0.08161 4.80737,-0.30808 2.60954,-0.461886 8.65355,-0.561435 11.87345,-0.195569 8.86788,1.007645 16.59827,4.222777 21.60942,8.987541 1.95678,1.860568 3.05279,3.266466 4.04785,5.192226 2.85215,5.51994 2.38797,11.60722 -1.30878,17.163066 -1.1473,1.724305 -3.02497,3.494342 -4.45209,4.196908 -1.70284,0.83831 -3.30278,1.122233 -5.06815,0.899396 -2.98205,-0.376402 -5.77006,-1.621686 -9.48935,-4.23849 -2.71468,-1.909994 -5.53917,-4.382268 -10.1684,-8.900389 -10.08623,-9.844142 -10.3168,-10.039432 -13.33845,-11.29735 -5.86609,-2.442063 -15.68146,-2.605243 -20.17787,-0.335456 -0.81442,0.411118 -1.97982,0.691929 -6.26128,1.508727 l -5.26062,1.003588 -3.34052,-0.0029 c -4.28308,-0.004 -5.40259,-0.192636 -7.1588,-1.205001 -2.376209,-1.369783 -5.24867,-2.422161 -8.293293,-3.038391 -2.061072,-0.417162 -7.155223,-0.419837 -9.272922,-0.005 -6.926117,1.357198 -13.967945,4.874881 -20.90279,10.441791 -4.113205,3.301857 -9.825847,8.778016 -11.547942,11.069892 -2.379635,3.166986 -5.543312,5.31278 -8.939448,6.06326 -1.869887,0.413216 -4.646557,0.340488 -6.634698,-0.173776 -5.789904,-1.497696 -10.927961,-6.139769 -12.721689,-11.493686 -0.857595,-2.559755 -0.969904,-5.138992 -0.323479,-7.42884 0.498409,-1.765521 2.066417,-4.197307 3.593581,-5.573193 0.44327,-0.399358 0.894959,-0.982533 1.003754,-1.295942 0.374599,-1.079099 1.757865,-3.079656 2.930011,-4.237527 3.765952,-3.720112 9.723047,-5.86651 18.813636,-6.778752 3.731067,-0.374406 7.436327,-0.575084 14.112106,-0.76432 10.053041,-0.284956 13.753996,-0.744474 16.304903,-2.0244587 0.808885,-0.4058777 1.7426,-1.091322 1.7426,-1.279242 0,-0.07571 -0.354337,-0.225499 -0.787414,-0.332864 C 80.160289,7.7708483 77.679943,7.0954043 75.081479,6.3772293 59.783012,2.1489646 53.1468,1.060345 44.910815,1.4279664 42.141301,1.5515859 38.018942,2.1597437 36.036614,2.7371475 35.401556,2.922124 33.501917,3.4363014 31.815197,3.879761 27.919388,4.9040193 25.031163,5.9499053 22.200467,7.3614523 17.588061,9.6614633 14.873461,11.572574 11.369401,14.986652 6.0858458,20.134523 2.8176433,26.177116 1.7257476,32.816854 c -0.3626787,2.205419 -0.3248502,6.394723 0.078815,8.727953 0.6643856,3.840257 2.3501085,8.691013 4.110325,11.827669 5.0008524,8.911394 13.5149284,15.336148 23.8281714,17.980827 1.925138,0.493678 4.91221,0.954004 6.713733,1.034634 l 1.077513,0.04822 0.53886,-1.35003 c 0.679004,-1.701135 1.158796,-4.418732 0.895745,-5.073613 -0.109125,-0.271664 -0.30957,-0.45586 -0.496075,-0.45586 -0.322469,0 -1.649205,1.303805 -2.006958,1.972273 -0.312979,0.584806 -0.352748,0.330487 -0.07457,-0.476916 0.577626,-1.676571 0.0076,-1.977653 -2.958721,-1.562658 -1.985429,0.27777 -2.147654,0.278754 -2.697547,0.01651 -0.700999,-0.334284 -0.966997,-0.926795 -0.859121,-1.913682 l 0.07884,-0.721165 -0.393337,0.6596 c -0.525997,0.882061 -1.337111,1.269669 -2.181266,1.042359 -1.061105,-0.285722 -2.050817,-1.041751 -4.105387,-3.136031 -1.770349,-1.80456 -2.566222,-2.372138 -2.566222,-1.830107 0,0.576126 -2.69797,-0.92775 -3.994213,-2.226416 -1.840244,-1.843677 -2.783038,-4.126895 -3.537378,-8.56669 -0.240109,-1.413194 -0.653147,-3.352724 -0.917862,-4.310046 -0.264714,-0.957324 -0.574368,-2.486569 -0.688119,-3.398313 -0.281799,-2.258683 -0.284284,-8.396404 -0.0041,-10.277806 0.993987,-6.675943 3.152447,-11.513267 6.732643,-15.088529 2.242347,-2.239258 4.502901,-3.620533 7.809284,-4.771753 0.904797,-0.315029 2.129964,-0.83848 2.722597,-1.1632207 2.531106,-1.3869514 6.252693,-2.740125 10.029157,-3.646609 10.644421,-2.5550397 22.140919,-1.600094 30.957863,2.5714876 0.79782,0.3774777 1.425839,0.7110697 1.3956,0.7413157 -0.03022,0.03025 -0.601855,-0.131003 -1.270224,-0.358332 C 69.275413,8.8845949 67.789531,8.5159889 66.641818,8.2928003 56.619937,6.3438893 43.659081,8.2864003 34.05319,13.177106 c -2.631233,1.339642 -3.74456,2.047855 -5.095495,3.241365 -4.005623,3.538829 -6.919021,8.455342 -8.194644,13.828892 -0.560368,2.360547 -0.706765,6.172493 -0.328721,8.559363 1.028948,6.496519 4.742316,11.567108 10.786236,14.728567 1.632768,0.854077 1.832059,0.875291 4.597782,0.489542 7.620334,-1.062845 13.636042,-4.292412 22.865739,-12.275569 1.14731,-0.992365 2.837625,-2.455273 3.756257,-3.250928 4.522994,-3.917477 8.98624,-7.138773 12.309669,-8.884372 3.32955,-1.748823 7.978742,-3.280991 11.177521,-3.683619 2.57563,-0.324205 7.465852,-0.120892 10.041185,0.41745 3.665772,0.766287 7.050571,2.095094 9.483141,3.722895 1.39294,0.932122 3.18819,2.731046 3.83668,3.844532 0.38755,0.665477 0.42181,0.82985 0.25901,1.243285 -0.10313,0.262033 -0.18696,1.073194 -0.18622,1.802591 0.002,1.974013 0.55122,3.40392 2.37949,6.195556 l 0.36633,0.559337 -0.65709,-0.414796 c -1.21116,-0.764567 -2.72932,-1.463068 -4.51201,-2.075938 -1.73014,-0.594807 -1.8237,-0.608167 -4.2556,-0.607928 -2.26162,2.18e-4 -2.60654,0.04066 -3.812729,0.447104 -0.729396,0.24578 -1.916077,0.783922 -2.637068,1.195876 l -1.310918,0.749005 -2.004524,-0.1852 C 90.342139,42.586191 82.507022,42.743986 79.723121,43.08974 67.568463,44.599551 57.667577,48.4496 50.73877,54.360586 c -4.933434,4.208729 -7.878521,9.124488 -8.974672,14.979954 -0.193313,1.032666 -0.553901,2.487314 -0.801302,3.232548 l -0.449824,1.354969 -4.058762,0.03261 -4.058763,0.03261 z"
       id="path1" /></g>
    <metadata
            id="metadata1"><rdf:RDF><cc:Work
         rdf:about=""><dc:title>GNUF</dc:title><dc:date>05-03-2025</dc:date><dc:creator><cc:Agent><dc:title>GNUF</dc:title></cc:Agent></dc:creator><dc:rights><cc:Agent><dc:title>GNUF</dc:title></cc:Agent></dc:rights><dc:publisher><cc:Agent><dc:title>GNUF</dc:title></cc:Agent></dc:publisher><dc:identifier>GNUF</dc:identifier><dc:source>GNUF</dc:source><dc:relation>GNUF</dc:relation><dc:language>English</dc:language><dc:subject><rdf:Bag><rdf:li>GNUF</rdf:li><rdf:li>Logo</rdf:li></rdf:Bag></dc:subject></cc:Work></rdf:RDF></metadata></svg>
